<?xml version="1.0" encoding="utf-8" ?>
<svg xmlns="http://www.w3.org/2000/svg" xmlns:xlink="http://www.w3.org/1999/xlink" width="265" height="94">
	<rect fill="white" width="265" height="94"/>
	<rect width="4.7244091" height="94.48819"/>
	<rect x="7.0866146" width="2.3622046" height="94.48819"/>
	<rect x="14.173229" width="2.3622055" height="94.48819"/>
	<rect x="25.984251" width="7.0866146" height="94.48819"/>
	<rect x="35.433071" width="2.3622055" height="94.48819"/>
	<rect x="40.157482" width="4.7244072" height="94.48819"/>
	<rect x="51.968502" width="2.3622055" height="94.48819"/>
	<rect x="56.692917" width="2.3622055" height="94.48819"/>
	<rect x="66.141739" width="4.724411" height="94.48819"/>
	<rect x="77.952751" width="2.3622055" height="94.48819"/>
	<rect x="87.401573" width="4.724411" height="94.48819"/>
	<rect x="94.48819" width="7.0866165" height="94.48819"/>
	<rect x="103.937" width="4.724411" height="94.48819"/>
	<rect x="115.74803" width="2.3622055" height="94.48819"/>
	<rect x="125.19685" width="2.3622055" height="94.48819"/>
	<rect x="129.92126" width="2.3621979" height="94.48819"/>
	<rect x="134.64566" width="4.724411" height="94.48819"/>
	<rect x="146.4567" width="2.3621979" height="94.48819"/>
	<rect x="155.9055" width="2.3621979" height="94.48819"/>
	<rect x="165.35434" width="4.724411" height="94.48819"/>
	<rect x="172.44095" width="2.3621979" height="94.48819"/>
	<rect x="181.88977" width="4.724411" height="94.48819"/>
	<rect x="193.70081" width="2.3621979" height="94.48819"/>
	<rect x="198.4252" width="7.0866089" height="94.48819"/>
	<rect x="207.87401" width="2.3621979" height="94.48819"/>
	<rect x="212.59842" width="4.724411" height="94.48819"/>
	<rect x="224.40944" width="2.3621979" height="94.48819"/>
	<rect x="233.85828" width="4.724411" height="94.48819"/>
	<rect x="245.66928" width="7.0866089" height="94.48819"/>
	<rect x="255.1181" width="2.3622131" height="94.48819"/>
	<rect x="259.84253" width="4.7243958" height="94.48819"/>
</svg>
